<svg width="52" height="30" viewBox="0 0 52 30" fill="none" xmlns="http://www.w3.org/2000/svg">
<path d="M49.9596 1.31795H41.5213C41.1769 1.31795 40.8389 1.4129 40.5434 1.59268C40.2478 1.77246 40.0057 2.03036 39.8428 2.33893C39.8428 2.33893 36.4773 8.64097 35.3963 10.7636C32.4881 16.4738 30.6048 14.6812 30.6048 12.031V2.8933C30.6048 2.12972 30.3065 1.39742 29.7754 0.857488C29.2444 0.317556 28.5242 0.0142256 27.7732 0.0142256H21.4288C20.5647 -0.0510921 19.6987 0.109261 18.9128 0.480054C18.1268 0.850847 17.4472 1.41977 16.9384 2.13279C16.9384 2.13279 20.16 1.60316 20.16 6.0168C20.16 7.11126 20.2155 10.2597 20.266 12.9005C20.2755 13.2896 20.1674 13.6724 19.9562 13.9971C19.745 14.3217 19.4409 14.5727 19.0849 14.7161C18.729 14.8594 18.3384 14.8883 17.9658 14.7988C17.5932 14.7093 17.2566 14.5057 17.0014 14.2155C14.4046 10.5431 12.2535 6.5652 10.5949 2.36824C10.4525 2.05428 10.2245 1.78846 9.93794 1.6023C9.6514 1.41613 9.31834 1.31745 8.9783 1.31795C7.14831 1.31795 3.48633 1.31795 1.3116 1.31795C1.10072 1.3165 0.892639 1.36711 0.705239 1.46546C0.517839 1.56381 0.356722 1.70694 0.23573 1.88257C0.114739 2.05819 0.037489 2.26106 0.0106184 2.47374C-0.0162522 2.68642 0.00805932 2.90255 0.0814645 3.10357C2.40944 9.5963 12.4376 30 23.8838 30H28.7015C29.2063 30 29.6904 29.7961 30.0473 29.4332C30.4043 29.0702 30.6048 28.578 30.6048 28.0648V25.1069C30.6048 24.7358 30.7116 24.3729 30.9119 24.0628C31.1123 23.7526 31.3976 23.5089 31.7325 23.3616C32.0674 23.2143 32.4375 23.1698 32.7969 23.2337C33.1564 23.2975 33.4897 23.467 33.7557 23.721L39.5221 29.2298C40.04 29.7245 40.7238 30 41.4344 30H49.0068C52.6589 30 52.6589 27.4232 50.6677 25.4293C49.2664 24.026 44.2096 18.6065 44.2096 18.6065C43.7766 18.1504 43.5183 17.5518 43.4814 16.9189C43.4446 16.2861 43.6316 15.6607 44.0086 15.1557C45.6431 12.9687 48.3166 9.38869 49.4504 7.85503C51.0002 5.75879 53.805 1.31795 49.9596 1.31795Z" fill="white"/>
</svg>
